<?xml version="1.0" encoding="UTF-8"?> <svg xmlns="http://www.w3.org/2000/svg" viewBox="1950 2450 100 100" width="100" height="100" data-guides="{&quot;vertical&quot;:[],&quot;horizontal&quot;:[]}"><path fill="#acff00" stroke="none" fill-opacity="1" stroke-width="1" stroke-opacity="1" color="rgb(51, 51, 51)" fill-rule="evenodd" font-size-adjust="none" id="tSvge15665327c" title="Path 4" d="M 2026.9 2484 C 2026.9 2483.1 2026.9 2482.2 2026.9 2481.3C 2030.3 2479.3 2032.5 2475.6 2032.5 2471.6C 2032.5 2470 2032.5 2468.4 2032.5 2466.8C 2032.5 2460.6 2027.5 2455.6 2021.3 2455.6C 2015.1 2455.6 2010 2460.6 2010 2466.8C 2010 2468.4 2010 2470 2010 2471.6C 2010 2475.5 2012 2479.1 2015.4 2481.1C 2015.4 2482.0666666666666 2015.4 2483.0333333333333 2015.4 2484C 2013.9 2484.4 2012.5 2485 2011.1 2485.8C 2008.9 2480.7 2003.8 2477.1 1997.9 2477.1C 1992.1 2477.1 1987.2 2480.5 1984.9 2485.5C 1983.6 2484.9 1982.3 2484.3 1981 2484C 1981 2483.1 1981 2482.2 1981 2481.3C 1984.4 2479.3 1986.6 2475.6 1986.6 2471.6C 1986.6 2470 1986.6 2468.4 1986.6 2466.8C 1986.6 2460.6 1981.6 2455.6 1975.4 2455.6C 1969.2 2455.6 1964.2 2460.6 1964.2 2466.8C 1964.2 2468.4 1964.2 2470 1964.2 2471.6C 1964.2 2475.5 1966.2 2479.1 1969.6 2481.1C 1969.6 2482.0666666666666 1969.6 2483.0333333333333 1969.6 2484C 1960.6 2486.6 1954.5 2494.7 1954.5 2504.1C 1954.5 2504.9 1955.2 2505.6 1956 2505.6C 1965.9666666666667 2505.6 1975.9333333333334 2505.6 1985.9 2505.6C 1987.1 2507.5 1988.8 2509.1 1990.8 2510.3C 1990.8 2511.8 1990.8 2513.3 1990.8 2514.8C 1978.9 2518 1970.8 2528.7 1970.8 2541.1C 1970.8 2541.9 1971.5 2542.6 1972.3 2542.6C 1989.4666666666667 2542.6 2006.6333333333334 2542.6 2023.8 2542.6C 2024.6 2542.6 2025.3 2541.9 2025.3 2541.1C 2025.3 2528.8 2016.8 2517.9 2005 2514.8C 2005 2513.366666666667 2005 2511.9333333333334 2005 2510.5C 2007.1 2509.3 2008.8 2507.7 2010.1 2505.7C 2020.3333333333333 2505.7 2030.5666666666666 2505.7 2040.8 2505.7C 2041.6 2505.7 2042.3 2505 2042.3 2504.2C 2042.2 2494.8 2035.8 2486.5 2026.9 2484ZM 1957.5 2502.7 C 1958.1 2494.9 1963.7 2488.5 1971.4 2486.7C 1972.1 2486.5 1972.6 2485.9 1972.6 2485.2C 1972.6 2483.5333333333333 1972.6 2481.866666666667 1972.6 2480.2C 1972.6 2479.6 1972.3 2479.1 1971.8 2478.9C 1969 2477.5 1967.2 2474.7 1967.2 2471.6C 1967.2 2470 1967.2 2468.4 1967.2 2466.8C 1967.2 2462.3 1970.9 2458.6 1975.4 2458.6C 1979.9 2458.6 1983.6 2462.3 1983.6 2466.8C 1983.6 2468.4 1983.6 2470 1983.6 2471.6C 1983.6 2474.7 1981.7 2477.6 1978.9 2479C 1978.4 2479.2 1978 2479.8 1978 2480.4C 1978 2482 1978 2483.6 1978 2485.2C 1978 2485.9 1978.5 2486.5 1979.2 2486.7C 1980.9 2487.1 1982.5 2487.7 1984 2488.5C 1983.8 2489.5 1983.7 2490.5 1983.7 2491.6C 1983.7 2493.733333333333 1983.7 2495.866666666667 1983.7 2498C 1983.7 2499.6 1984 2501.2 1984.5 2502.7C 1975.5 2502.7 1966.5 2502.7 1957.5 2502.7ZM 2002.8 2508.2 C 2002.3 2508.4 2001.9 2509 2001.9 2509.6C 2001.9 2511.733333333333 2001.9 2513.866666666667 2001.9 2516C 2001.9 2516.7 2002.4 2517.3 2003.1 2517.5C 2013.7 2519.8 2021.5 2529 2022.2 2539.7C 2006.0666666666666 2539.7 1989.9333333333334 2539.7 1973.8 2539.7C 1974.4 2529 1982 2520 1992.6 2517.6C 1993.3 2517.4 1993.8 2516.8 1993.8 2516.1C 1993.8 2513.9 1993.8 2511.7 1993.8 2509.5C 1993.8 2508.9 1993.5 2508.4 1993 2508.2C 1989.1 2506.3 1986.7 2502.4 1986.7 2498.1C 1986.7 2495.9666666666667 1986.7 2493.8333333333335 1986.7 2491.7C 1986.7 2485.4 1991.8 2480.4 1998 2480.4C 2004.2 2480.4 2009.3 2485.5 2009.3 2491.7C 2009.3 2493.8 2009.3 2495.9 2009.3 2498C 2009.3 2502.3 2006.8 2506.3 2002.8 2508.2ZM 2011.5 2502.7 C 2012 2501.2 2012.3 2499.6 2012.3 2498C 2012.3 2495.866666666667 2012.3 2493.733333333333 2012.3 2491.6C 2012.3 2490.7 2012.2 2489.7 2012 2488.9C 2013.6 2487.9 2015.4 2487.2 2017.2 2486.8C 2017.9 2486.6 2018.4 2486 2018.4 2485.3C 2018.4 2483.633333333333 2018.4 2481.9666666666667 2018.4 2480.3C 2018.4 2479.7 2018.1 2479.2 2017.6 2479C 2014.8 2477.6 2013 2474.8 2013 2471.7C 2013 2470.1 2013 2468.5 2013 2466.9C 2013 2462.4 2016.7 2458.7 2021.2 2458.7C 2025.7 2458.7 2029.4 2462.4 2029.4 2466.9C 2029.4 2468.5 2029.4 2470.1 2029.4 2471.7C 2029.4 2474.8 2027.5 2477.7 2024.7 2479.1C 2024.2 2479.3 2023.8 2479.9 2023.8 2480.5C 2023.8 2482.1 2023.8 2483.7 2023.8 2485.3C 2023.8 2486 2024.3 2486.6 2025 2486.8C 2032.7 2488.5 2038.4 2495.1 2039.1 2502.8C 2029.9 2502.766666666667 2020.7 2502.733333333333 2011.5 2502.7Z"></path><defs></defs></svg> 