<?xml version="1.0" encoding="UTF-8"?> <svg xmlns="http://www.w3.org/2000/svg" viewBox="1950 2450 100 100" width="100" height="100" data-guides="{&quot;vertical&quot;:[],&quot;horizontal&quot;:[]}"><path fill="#acff00" stroke="none" fill-opacity="1" stroke-width="1" stroke-opacity="1" color="rgb(51, 51, 51)" fill-rule="evenodd" font-size-adjust="none" id="tSvg1251076b3b7" title="Path 7" d="M 2043.998 2495.312 C 2043.998 2491.636 2042.339 2488.191 2039.512 2485.898C 2039.632278790095 2485.337244847475 2039.6939434763765 2484.7655059713206 2039.696 2484.192C 2039.696 2479.613 2036.31 2475.81 2031.911 2475.155C 2032.010028923914 2474.6422508511046 2032.0599215519594 2474.121224483638 2032.06 2473.599C 2032.06 2468.724 2028.218 2464.741 2023.405 2464.488C 2023.3251276674553 2464.473379406043 2023.2441881913714 2464.4653523518837 2023.163 2464.464C 2023.123 2464.464 2023.084 2464.469 2023.043 2464.47C 2023.003 2464.469 2022.964 2464.464 2022.923 2464.464C 2022.465 2464.464 2022.004 2464.505 2021.517 2464.59C 2020.6652764724238 2460.049954212146 2016.6992462225694 2456.7613863430406 2012.08 2456.765C 2006.769 2456.765 2002.448 2461.086 2002.448 2466.398C 2002.448 2488.3706666666667 2002.448 2510.3433333333332 2002.448 2532.316C 2002.448 2539.039 2007.917 2544.507 2014.639 2544.507C 2019.099 2544.507 2023.147 2542.094 2025.285 2538.261C 2025.764 2538.365 2026.224 2538.429 2026.686 2538.459C 2029.589 2538.6440000000002 2032.416 2537.693 2034.612 2535.766C 2036.7989154424636 2533.857349435038 2038.1312616477694 2531.1530467341154 2038.312 2528.256C 2038.389230841446 2527.0291488025496 2038.2528726775274 2525.798203391457 2037.9089999999999 2524.618C 2041.705 2521.927 2043.936 2517.666 2043.936 2512.997C 2043.936 2509.612 2042.717 2506.362 2040.491 2503.773C 2042.731 2501.505 2043.998 2498.471 2043.998 2495.312ZM 2040.938 2512.999 C 2040.938 2516.483 2039.356 2519.679 2036.643 2521.818C 2034.635 2518.622 2031.073 2516.581 2027.216 2516.581C 2026.0612994616208 2516.581 2025.3396116251338 2517.831 2025.9169618943233 2518.831C 2026.1849110867545 2519.295101615138 2026.6801016151378 2519.581 2027.216 2519.581C 2030.573522582192 2519.593667319985 2033.5812832554113 2521.659668008286 2034.798 2524.789C 2035.208 2525.877 2035.39 2526.978 2035.319 2528.063C 2035.1880878852785 2530.1651471676146 2034.2211727660654 2532.1274266697824 2032.634 2533.512C 2031.0548205666537 2534.905813864919 2028.9834128854197 2535.609487482854 2026.882 2535.466C 2026.288 2535.427 2025.674 2535.299 2024.949 2535.064C 2024.2089206238345 2534.822563350516 2023.4071384789 2535.1874046299395 2023.103 2535.904C 2021.6644526395914 2539.3038427814254 2018.3296577416136 2541.5115447616695 2014.638 2541.508C 2009.57 2541.508 2005.447 2537.385 2005.447 2532.317C 2005.447 2510.3443333333335 2005.447 2488.371666666667 2005.447 2466.399C 2005.4508571631202 2462.737686348715 2008.4176869750866 2459.7704118466168 2012.079 2459.766C 2015.477 2459.766 2018.273 2462.328 2018.637 2465.674C 2015.886 2467.25 2014.025 2470.209 2014.025 2473.6C 2014.025 2474.7547005383794 2015.275 2475.4763883748665 2016.275 2474.8990381056765C 2016.7391016151378 2474.6310889132455 2017.025 2474.1358983848622 2017.025 2473.6C 2017.025 2470.257 2019.714 2467.535 2023.041 2467.47C 2026.368 2467.535 2029.057 2470.257 2029.057 2473.599C 2029.057 2474.221 2028.94 2474.865 2028.698 2475.57C 2028.6288552083938 2475.7723577981706 2028.6036282834943 2475.987127564365 2028.624 2476.2C 2028.6206666666667 2476.2116666666666 2028.6173333333334 2476.2233333333334 2028.614 2476.235C 2028.3631646812664 2477.222710203184 2029.1491207007814 2478.1676805325324 2030.166 2478.101C 2030.2971915648654 2478.09052983813 2030.4279485481768 2478.0751859074635 2030.558 2478.055C 2033.9452190300076 2478.0588590538446 2036.690142432619 2480.803780968299 2036.694 2484.191C 2036.694 2484.763 2036.591 2485.35 2036.372 2486.04C 2036.169040236534 2486.6750407652958 2036.409878909405 2487.3678085192905 2036.963 2487.74C 2039.3846106644323 2489.370917666558 2040.8773502447696 2492.0640965452117 2040.977 2494.982C 2040.9766666666667 2494.986 2040.9763333333333 2494.99 2040.9759999999999 2494.994C 2040.9759999999999 2500.024 2036.884 2504.117 2031.854 2504.117C 2026.824 2504.117 2022.731 2500.024 2022.731 2494.994C 2022.731 2493.8392994616206 2021.481 2493.1176116251336 2020.481 2493.6949618943236C 2020.0168983848623 2493.9629110867545 2019.731 2494.458101615138 2019.731 2494.994C 2019.731 2501.679 2025.1689999999999 2507.117 2031.854 2507.117C 2034.0819999999999 2507.117 2036.164 2506.502 2037.96 2505.449C 2039.8799999999999 2507.539 2040.9379999999999 2510.212 2040.938 2512.999ZM 1988.179 2456.766 C 1983.560076723487 2456.7621521281785 1979.594485450947 2460.0510504916733 1978.744 2464.591C 1978.2795470419026 2464.508236712529 1977.8087681116122 2464.466077452723 1977.337 2464.465C 1977.297 2464.465 1977.258 2464.47 1977.217 2464.471C 1977.177 2464.47 1977.138 2464.465 1977.097 2464.465C 1977.014 2464.465 1976.934 2464.476 1976.855 2464.489C 1972.042 2464.742 1968.201 2468.725 1968.201 2473.6C 1968.201 2474.114 1968.25 2474.63 1968.35 2475.156C 1963.951 2475.811 1960.565 2479.614 1960.565 2484.193C 1960.565 2484.747 1960.626 2485.311 1960.749 2485.899C 1957.9098338891993 2488.199389685933 1956.2613065853845 2491.658871643714 1956.263 2495.313C 1956.263 2498.472 1957.529 2501.506 1959.768 2503.776C 1957.541 2506.365 1956.322 2509.615 1956.322 2513C 1956.322 2517.669 1958.553 2521.929 1962.349 2524.621C 1962.0044276167696 2525.8013981345 1961.868388928899 2527.0328528276054 1961.947 2528.26C 1962.1275231511404 2531.1566008770355 1963.459514444093 2533.8605539927075 1965.646 2535.769C 1967.8234062599024 2537.6872959847483 1970.6766529025965 2538.656737493359 1973.5720000000001 2538.462C 1974.027 2538.432 1974.491 2538.366 1974.972 2538.263C 1977.1233581450122 2542.123682765463 1981.1983631856974 2544.514869631786 1985.618 2544.51C 1992.34 2544.51 1997.809 2539.041 1997.809 2532.319C 1997.809 2510.3456666666666 1997.809 2488.3723333333332 1997.809 2466.399C 1997.811 2461.087 1993.49 2456.766 1988.179 2456.766ZM 1994.811 2532.317 C 1994.811 2537.385 1990.688 2541.508 1985.62 2541.508C 1981.9285449431447 2541.511676660954 1978.5939774546969 2539.303863937631 1977.156 2535.904C 1976.8518615211 2535.1874046299395 1976.0500793761655 2534.822563350516 1975.31 2535.064C 1974.586 2535.299 1973.972 2535.427 1973.377 2535.466C 1971.2758220424112 2535.6100059904834 1969.2045296194149 2534.906249179803 1967.626 2533.512C 1966.0388272339346 2532.1274266697824 1965.0719121147215 2530.1651471676146 1964.941 2528.063C 1964.865 2526.9030000000002 1965.066 2525.727 1965.539 2524.568C 1965.546 2524.551 1965.544 2524.532 1965.55 2524.515C 1966.892 2521.459 1969.775 2519.562 1973.147 2519.562C 1974.3017005383792 2519.562 1975.0233883748663 2518.312 1974.4460381056767 2517.312C 1974.1780889132456 2516.847898384862 1973.6828983848623 2516.562 1973.147 2516.562C 1969.2754798650014 2516.5514214356804 1965.6698303539551 2518.529847037074 1963.599 2521.801C 1960.898 2519.662 1959.322 2516.474 1959.322 2512.999C 1959.322 2510.212 1960.382 2507.539 1962.3 2505.45C 1964.1503337779782 2506.5410348621363 1966.2589564528098 2507.1169609150647 1968.407 2507.118C 1975.092 2507.118 1980.53 2501.68 1980.53 2494.995C 1980.53 2493.840299461621 1979.28 2493.118611625134 1978.28 2493.6959618943233C 1977.8158983848623 2493.9639110867547 1977.53 2494.4591016151376 1977.53 2494.995C 1977.53 2500.025 1973.438 2504.118 1968.407 2504.118C 1963.376 2504.118 1959.284 2500.025 1959.284 2494.995C 1959.2836666666667 2494.993 1959.2833333333333 2494.991 1959.283 2494.989C 1959.3808480547127 2492.0692272102942 1960.8733393282262 2489.3735938425584 1963.296 2487.741C 1963.8486795956264 2487.3689358892475 1964.089460765967 2486.6767409520235 1963.887 2486.042C 1963.667 2485.351 1963.565 2484.764 1963.565 2484.192C 1963.565 2480.816 1966.306 2478.067 1969.76 2478.067C 1969.7673333333332 2478.067 1969.7746666666667 2478.067 1969.782 2478.067C 1969.885 2478.081 1969.988 2478.094 1970.093 2478.101C 1971.127776253456 2478.1691525959814 1971.9174990203437 2477.191229651825 1971.633 2476.194C 1971.636 2476.159 1971.639 2476.127 1971.64 2476.099C 1971.645236325925 2475.9192177891177 1971.6177913459774 2475.7399783518485 1971.559 2475.57C 1971.317 2474.863 1971.2 2474.218 1971.2 2473.598C 1971.2 2470.256 1973.888 2467.533 1977.216 2467.469C 1980.544 2467.534 1983.232 2470.256 1983.232 2473.599C 1983.232 2474.7537005383792 1984.482 2475.4753883748663 1985.482 2474.8980381056767C 1985.9461016151376 2474.6300889132453 1986.232 2474.1348983848625 1986.232 2473.599C 1986.232 2470.208 1984.371 2467.249 1981.62 2465.6730000000002C 1981.984 2462.327 1984.78 2459.765 1988.1779999999999 2459.765C 1991.8393130249135 2459.7694118466165 1994.8061428368799 2462.736686348715 1994.81 2466.398C 1994.81 2488.371 1994.81 2510.344 1994.811 2532.317Z"></path><defs></defs></svg> 