<?xml version="1.0" encoding="UTF-8"?> <svg xmlns="http://www.w3.org/2000/svg" viewBox="1950 2450 100 100" width="100" height="100" data-guides="{&quot;vertical&quot;:[],&quot;horizontal&quot;:[]}"><path fill="#acff00" stroke="none" fill-opacity="1" stroke-width="1" stroke-opacity="1" color="rgb(51, 51, 51)" fill-rule="evenodd" font-size-adjust="none" id="tSvg144db33999" title="Path 9" d="M 2040.584 2516.621 C 2035.2966666666666 2516.621 2030.0093333333334 2516.621 2024.722 2516.621C 2024.722 2512.553 2024.722 2508.485 2024.722 2504.417C 2029.929 2504.417 2035.136 2504.417 2040.343 2504.417C 2041.171427124746 2504.417 2041.843 2503.745427124746 2041.843 2502.917C 2041.843 2497.3133333333335 2041.843 2491.7096666666666 2041.843 2486.106C 2041.843 2485.277572875254 2041.171427124746 2484.606 2040.343 2484.606C 2035.187 2484.606 2030.031 2484.606 2024.875 2484.606C 2024.875 2479.81 2024.875 2475.014 2024.875 2470.218C 2024.875 2469.3895728752536 2024.2034271247462 2468.718 2023.375 2468.718C 2010.236 2468.718 1997.097 2468.718 1983.958 2468.718C 1983.958 2466.416 1983.958 2464.114 1983.958 2461.812C 1983.958 2460.9835728752537 1983.2864271247463 2460.312 1982.458 2460.312C 1974.7776666666666 2460.312 1967.0973333333334 2460.312 1959.417 2460.312C 1958.5885728752537 2460.312 1957.917 2460.9835728752537 1957.917 2461.812C 1957.917 2467.416 1957.917 2473.02 1957.917 2478.624C 1957.917 2479.452427124746 1958.5885728752537 2480.124 1959.417 2480.124C 1962.757 2480.124 1966.097 2480.124 1969.437 2480.124C 1969.437 2483.3693333333335 1969.437 2486.614666666667 1969.437 2489.86C 1969.541 2495.454333333333 1969.645 2501.0486666666666 1969.749 2506.643C 1969.749 2509.879 1969.749 2513.115 1969.749 2516.351C 1966.4093333333333 2516.351 1963.0696666666668 2516.351 1959.73 2516.351C 1958.9015728752538 2516.351 1958.23 2517.022572875254 1958.23 2517.851C 1958.23 2523.455 1958.23 2529.059 1958.23 2534.663C 1958.23 2535.491427124746 1958.9015728752538 2536.163 1959.73 2536.163C 1967.4103333333333 2536.163 1975.0906666666667 2536.163 1982.771 2536.163C 1983.5994271247462 2536.163 1984.271 2535.491427124746 1984.271 2534.663C 1984.271 2529.059 1984.271 2523.455 1984.271 2517.851C 1984.271 2517.022572875254 1983.5994271247462 2516.351 1982.771 2516.351C 1979.4306666666666 2516.351 1976.0903333333333 2516.351 1972.75 2516.351C 1972.75 2513.105666666667 1972.75 2509.8603333333335 1972.75 2506.615C 1972.646 2501.020666666667 1972.542 2495.4263333333333 1972.438 2489.832C 1972.438 2486.596 1972.438 2483.36 1972.438 2480.124C 1975.7783333333334 2480.124 1979.1186666666667 2480.124 1982.459 2480.124C 1983.2874271247463 2480.124 1983.959 2479.452427124746 1983.959 2478.624C 1983.959 2476.322 1983.959 2474.02 1983.959 2471.718C 1996.598 2471.718 2009.237 2471.718 2021.876 2471.718C 2021.876 2476.014 2021.876 2480.31 2021.876 2484.6059999999998C 2013.2033333333334 2484.6059999999998 2004.5306666666668 2484.6059999999998 1995.858 2484.6059999999998C 1995.0295728752537 2484.6059999999998 1994.358 2485.277572875254 1994.358 2486.1059999999998C 1994.358 2491.7096666666666 1994.358 2497.3133333333335 1994.358 2502.917C 1994.358 2503.745427124746 1995.0295728752537 2504.417 1995.858 2504.417C 2004.4793333333332 2504.417 2013.1006666666667 2504.417 2021.722 2504.417C 2021.722 2508.485 2021.722 2512.553 2021.722 2516.621C 2013.029 2516.621 2004.336 2516.621 1995.643 2516.621C 1994.8145728752538 2516.621 1994.143 2517.292572875254 1994.143 2518.121C 1994.143 2523.725 1994.143 2529.329 1994.143 2534.933C 1994.143 2535.761427124746 1994.8145728752538 2536.433 1995.643 2536.433C 2010.6233333333334 2536.433 2025.6036666666666 2536.433 2040.584 2536.433C 2041.4124271247463 2536.433 2042.084 2535.761427124746 2042.084 2534.933C 2042.084 2529.329 2042.084 2523.725 2042.084 2518.121C 2042.084 2517.292572875254 2041.4124271247463 2516.621 2040.584 2516.621ZM 1981.271 2533.163 C 1974.5906666666667 2533.163 1967.9103333333333 2533.163 1961.23 2533.163C 1961.23 2528.559 1961.23 2523.955 1961.23 2519.351C 1967.9103333333333 2519.351 1974.5906666666667 2519.351 1981.271 2519.351C 1981.271 2523.955 1981.271 2528.559 1981.271 2533.163ZM 1980.958 2477.124 C 1974.2776666666666 2477.124 1967.5973333333334 2477.124 1960.917 2477.124C 1960.917 2472.52 1960.917 2467.916 1960.917 2463.312C 1967.5973333333334 2463.312 1974.2776666666666 2463.312 1980.958 2463.312C 1980.958 2467.916 1980.958 2472.52 1980.958 2477.124ZM 1997.358 2487.6059999999998 C 2011.1863333333333 2487.6059999999998 2025.0146666666667 2487.6059999999998 2038.843 2487.6059999999998C 2038.843 2492.2096666666666 2038.843 2496.8133333333335 2038.843 2501.417C 2025.0146666666667 2501.417 2011.1863333333333 2501.417 1997.358 2501.417C 1997.358 2496.8133333333335 1997.358 2492.2096666666666 1997.358 2487.6059999999998ZM 2039.084 2533.433 C 2025.1036666666666 2533.433 2011.1233333333334 2533.433 1997.143 2533.433C 1997.143 2528.829 1997.143 2524.225 1997.143 2519.621C 2011.1233333333334 2519.621 2025.1036666666666 2519.621 2039.084 2519.621C 2039.084 2524.225 2039.084 2528.829 2039.084 2533.433Z"></path><defs></defs></svg> 