<?xml version="1.0" encoding="UTF-8"?> <svg xmlns="http://www.w3.org/2000/svg" viewBox="1950 2450 100 100" width="100" height="100" data-guides="{&quot;vertical&quot;:[],&quot;horizontal&quot;:[]}"><path fill="#acff00" stroke="none" fill-opacity="1" stroke-width="1" stroke-opacity="1" color="rgb(51, 51, 51)" fill-rule="evenodd" font-size-adjust="none" id="tSvg84a525c1f8" title="Path 1" d="M 2042.9 2510.4 C 2040.4333333333334 2508.733333333333 2037.9666666666667 2507.0666666666666 2035.5 2505.4C 2035.5 2500.4 2035.5 2495.4 2035.5 2490.4C 2037.9666666666667 2488.766666666667 2040.4333333333334 2487.133333333333 2042.9 2485.5C 2043.3 2485.2 2043.6 2484.8 2043.6 2484.3C 2043.6 2483.8 2043.3 2483.3 2042.9 2483.1C 2030.2 2474.5666666666666 2017.5 2466.0333333333333 2004.8 2457.5C 2004.3 2457.2 2003.6 2457.2 2003.1 2457.5C 1987.4333333333334 2467.9666666666667 1971.7666666666667 2478.4333333333334 1956.1 2488.9C 1955.9 2489 1955.8 2489.1 1955.7 2489.3C 1955.7 2489.3333333333335 1955.7 2489.366666666667 1955.7 2489.4C 1955.5 2489.7 1955.5 2489.9 1955.5 2490.2C 1955.5 2499.366666666667 1955.5 2508.5333333333333 1955.5 2517.7C 1955.5 2518.2 1955.8 2518.7 1956.2 2518.9C 1968.9 2527.366666666667 1981.6 2535.8333333333335 1994.3 2544.3C 1994.6 2544.5 1994.8 2544.6 1995.1 2544.6C 1995.4 2544.6 1995.7 2544.5 1995.9 2544.3C 2011.6 2533.8333333333335 2027.3 2523.366666666667 2043 2512.9C 2043.4 2512.6 2043.7 2512.2 2043.7 2511.7C 2043.6 2511.1 2043.3 2510.6 2042.9 2510.4ZM 2004 2460.6 C 2015.8 2468.4666666666667 2027.6 2476.3333333333335 2039.4 2484.2C 2037.4666666666667 2485.4666666666667 2035.5333333333333 2486.733333333333 2033.6 2488C 2033.3 2488.1 2033 2488.3 2032.8 2488.5C 2020.2 2496.9 2007.6 2505.3 1995 2513.7C 1985.5333333333333 2507.4 1976.0666666666666 2501.1 1966.6 2494.8C 1966.5 2494.7 1966.4 2494.7 1966.4 2494.6C 1964.1333333333334 2493.1 1961.8666666666666 2491.6 1959.6 2490.1C 1974.4 2480.266666666667 1989.2 2470.4333333333334 2004 2460.6ZM 1967.1 2498.8 C 1976.1 2504.8 1985.1 2510.8 1994.1 2516.8C 1994.6 2517.1 1995.3 2517.1 1995.8 2516.8C 2008.0333333333333 2508.633333333333 2020.2666666666667 2500.4666666666667 2032.5 2492.3C 2032.5 2496.4 2032.5 2500.5 2032.5 2504.6C 2020.0666666666666 2512.8 2007.6333333333334 2521 1995.2 2529.2C 1985.8333333333333 2523.2 1976.4666666666667 2517.2 1967.1 2511.2C 1967.1 2507.0666666666666 1967.1 2502.9333333333334 1967.1 2498.8ZM 1995 2541.2 C 1982.8 2533.0666666666666 1970.6 2524.9333333333334 1958.4 2516.8C 1958.4 2508.866666666667 1958.4 2500.9333333333334 1958.4 2493C 1960.3333333333333 2494.266666666667 1962.2666666666667 2495.5333333333333 1964.2 2496.8C 1964.2 2501.866666666667 1964.2 2506.9333333333334 1964.2 2512C 1964.2 2512.5 1964.5 2513 1964.9 2513.3C 1974.7666666666667 2519.633333333333 1984.6333333333334 2525.9666666666667 1994.5 2532.3C 1994.7 2532.5 1995 2532.5 1995.3 2532.5C 1995.6 2532.5 1995.9 2532.4 1996.1 2532.3C 2008.5666666666666 2524.1 2021.0333333333333 2515.9 2033.5 2507.7C 2035.4666666666667 2509.0333333333333 2037.4333333333334 2510.366666666667 2039.4 2511.7C 2024.6 2521.5333333333333 2009.8 2531.366666666667 1995 2541.2Z"></path><path fill="#acff00" stroke="none" fill-opacity="1" stroke-width="1" stroke-opacity="1" color="rgb(51, 51, 51)" fill-rule="evenodd" font-size-adjust="none" id="tSvg127cc7e3897" title="Path 2" d="M 1997.5 2474.3 C 2003.4333333333334 2478.366666666667 2009.3666666666666 2482.4333333333334 2015.3 2486.5C 2015.6 2486.7 2015.9 2486.8 2016.1 2486.8C 2016.6 2486.8 2017 2486.6 2017.3 2486.1C 2017.8 2485.4 2017.6 2484.5 2016.9 2484C 2011 2479.9333333333334 2005.1 2475.866666666667 1999.2 2471.8C 1998.5 2471.3 1997.6 2471.5 1997.1 2472.2C 1996.6 2472.9 1996.8 2473.8 1997.5 2474.3Z"></path><defs></defs></svg> 