<?xml version="1.0" encoding="UTF-8"?> <svg xmlns="http://www.w3.org/2000/svg" viewBox="1950 2450 100 100" width="100" height="100" data-guides="{&quot;vertical&quot;:[],&quot;horizontal&quot;:[]}"><path fill="#acff00" stroke="none" fill-opacity="1" stroke-width="1" stroke-opacity="1" color="rgb(51, 51, 51)" fill-rule="evenodd" font-size-adjust="none" id="tSvg13d755ae33f" title="Path 8" d="M 2038.5 2465.3 C 2038.2 2465 2037.8 2464.8 2037.4 2464.8C 2032.3333333333333 2464.8 2027.2666666666667 2464.8 2022.2 2464.8C 2022.2 2462.4666666666667 2022.2 2460.133333333333 2022.2 2457.8C 2022.2 2457 2021.5 2456.3 2020.7 2456.3C 2006.4666666666667 2456.3 1992.2333333333333 2456.3 1978 2456.3C 1977.2 2456.3 1976.5 2457 1976.5 2457.8C 1976.5 2460.133333333333 1976.5 2462.4666666666667 1976.5 2464.8C 1971.3 2464.8 1966.1 2464.8 1960.9 2464.8C 1960.5 2464.8 1960.1 2465 1959.8 2465.3C 1959.5 2465.6 1959.4 2466 1959.4 2466.4C 1959.4 2466.7 1959.7 2473.1 1962 2480.5C 1965.2 2490.4 1970.6 2497.4 1977.8 2500.6C 1980.2 2508.6 1985.7 2514.9 1992.6 2517.4C 1992.6 2517.5 1992.6 2517.6 1992.6 2517.7C 1992.6 2526 1986.3 2532.6 1978.2 2532.6C 1977.4 2532.6 1976.7 2533.3 1976.7 2534.1C 1976.7 2536.9333333333334 1976.7 2539.766666666667 1976.7 2542.6C 1976.7 2543.4 1977.4 2544.1 1978.2 2544.1C 1992.3666666666666 2544.1 2006.5333333333333 2544.1 2020.7 2544.1C 2021.5 2544.1 2022.2 2543.4 2022.2 2542.6C 2022.2 2539.766666666667 2022.2 2536.9333333333334 2022.2 2534.1C 2022.2 2533.3 2021.5 2532.6 2020.7 2532.6C 2012.5 2532.6 2005.8 2525.9 2005.8 2517.7C 2005.8 2517.633333333333 2005.8 2517.5666666666666 2005.8 2517.5C 2013 2515 2018.6 2508.6 2021 2500.4C 2027.9 2497.1 2033.2 2490.2 2036.3 2480.5C 2038.7 2473.1 2038.9 2466.6 2038.9 2466.4C 2039 2466 2038.8 2465.6 2038.5 2465.3ZM 1962.5 2467.8 C 1967.1666666666667 2467.8 1971.8333333333333 2467.8 1976.5 2467.8C 1976.5 2475.8 1976.5 2483.8 1976.5 2491.8C 1976.5 2493.5 1976.6 2495.1 1976.9 2496.7C 1965.5 2489.9 1963 2473 1962.5 2467.8ZM 2019.2 2535.5 C 2019.2 2537.3333333333335 2019.2 2539.1666666666665 2019.2 2541C 2006.0333333333333 2541 1992.8666666666668 2541 1979.7 2541C 1979.7 2539.1666666666665 1979.7 2537.3333333333335 1979.7 2535.5C 1988.5 2534.8 1995.3 2527.5 1995.5 2518.2C 1996.7 2518.4 1998 2518.6 1999.3 2518.6C 2000.5 2518.6 2001.7 2518.5 2002.8 2518.3C 2003.2 2527.4 2010.3 2534.8 2019.2 2535.5ZM 2003.3 2515.2 C 2002 2515.5 2000.7 2515.7 1999.4 2515.7C 1997.9 2515.7 1996.4 2515.5 1995 2515.1C 1994.7 2515 1994.2 2514.8 1994 2514.8C 1985.7 2512 1979.5 2502.8 1979.5 2491.9C 1979.5 2481.0666666666666 1979.5 2470.233333333333 1979.5 2459.4C 1992.7333333333333 2459.4 2005.9666666666667 2459.4 2019.2 2459.4C 2019.2 2470.233333333333 2019.2 2481.0666666666666 2019.2 2491.9C 2019.2 2502.8 2013 2512 2004.6 2514.8M 2021.9 2496.5 C 2022.1 2495 2022.3 2493.4 2022.3 2491.8C 2022.3 2483.8 2022.3 2475.8 2022.3 2467.8C 2026.8333333333333 2467.8 2031.3666666666668 2467.8 2035.9 2467.8C 2035.4 2473 2033 2489.4 2021.9 2496.5Z"></path><path fill="#acff00" stroke="none" fill-opacity="1" stroke-width="1" stroke-opacity="1" color="rgb(51, 51, 51)" fill-rule="evenodd" font-size-adjust="none" id="tSvg105f49cb853" title="Path 9" d="M 2013.8 2477.3 C 2011.0666666666666 2476.9 2008.3333333333333 2476.5 2005.6 2476.1C 2004.3666666666666 2473.6 2003.1333333333332 2471.1 2001.9 2468.6C 2001.5 2467.8 2000.6 2467.2 1999.7 2467.2C 1998.8 2467.2 1997.9 2467.7 1997.5 2468.6C 1996.2666666666667 2471.1 1995.0333333333333 2473.6 1993.8 2476.1C 1991.0666666666666 2476.5 1988.3333333333333 2476.9 1985.6 2477.3C 1984.7 2477.4 1983.9 2478.1 1983.6 2479C 1983.3 2479.9 1983.5 2480.9 1984.2 2481.5C 1986.2 2483.4333333333334 1988.2 2485.366666666667 1990.2 2487.3C 1989.7333333333333 2490.0333333333333 1989.2666666666667 2492.766666666667 1988.8 2495.5C 1988.6 2496.4 1989 2497.3 1989.8 2497.9C 1990.2 2498.2 1990.7 2498.4 1991.3 2498.4C 1991.7 2498.4 1992.1 2498.3 1992.4 2498.1C 1994.9333333333334 2496.8333333333335 1997.4666666666667 2495.5666666666666 2000 2494.3C 2002.4 2495.5666666666666 2004.8 2496.8333333333335 2007.2 2498.1C 2008 2498.5 2009 2498.5 2009.8 2497.9C 2010.6 2497.3 2010.9 2496.4 2010.8 2495.5C 2010.3333333333333 2492.766666666667 2009.8666666666666 2490.0333333333333 2009.4 2487.3C 2011.4 2485.366666666667 2013.4 2483.4333333333334 2015.4 2481.5C 2016.1 2480.8 2016.3 2479.9 2016 2479C 2015.5 2478.1 2014.8 2477.4 2013.8 2477.3ZM 2006.6 2485.7 C 2006.2 2486 2006.1 2486.5 2006.2 2487C 2006.6666666666667 2489.633333333333 2007.1333333333332 2492.266666666667 2007.6 2494.9C 2005.3 2493.7 2003 2492.5 2000.7 2491.3C 2000.3 2491.1 1999.8 2491.1 1999.3 2491.3C 1996.8333333333333 2492.5333333333333 1994.3666666666666 2493.766666666667 1991.9 2495C 1992.3666666666666 2492.3333333333335 1992.8333333333333 2489.6666666666665 1993.3 2487C 1993.4 2486.5 1993.2 2486 1992.9 2485.7C 1991 2483.8333333333335 1989.1 2481.9666666666667 1987.2 2480.1C 1989.8333333333333 2479.7 1992.4666666666667 2479.3 1995.1 2478.9C 1995.6 2478.8 1996 2478.5 1996.2 2478.1C 1997.3666666666666 2475.7 1998.5333333333333 2473.3 1999.7 2470.9C 2000.8666666666666 2473.3 2002.0333333333333 2475.7 2003.2 2478.1C 2003.4 2478.5 2003.8 2478.9 2004.3 2478.9C 2006.9333333333334 2479.3 2009.5666666666666 2479.7 2012.2 2480.1C 2010.3333333333333 2481.9666666666667 2008.4666666666667 2483.8333333333335 2006.6 2485.7Z"></path><defs></defs></svg> 