<?xml version="1.0" encoding="UTF-8"?> <svg xmlns="http://www.w3.org/2000/svg" viewBox="1950 2450 100 100" width="100" height="100" data-guides="{&quot;vertical&quot;:[],&quot;horizontal&quot;:[]}"><path fill="#acff00" stroke="none" fill-opacity="1" stroke-width="1" stroke-opacity="1" color="rgb(51, 51, 51)" fill-rule="evenodd" font-size-adjust="none" id="tSvg7eb9b27228" title="Path 1" d="M 2024.59 2470.761 C 2019.9123186896595 2466.553856521822 2013.7468078492855 2464.3913910789897 2007.466 2464.755C 2001.1836928228265 2465.0864935252494 1995.2949770485106 2467.9170666702666 1991.112 2472.616C 1982.394 2482.358 1983.227 2497.377 1992.969 2506.095C 1997.3104771342828 2509.986256314685 2002.937887037321 2512.1340695355348 2008.768 2512.125C 2015.283 2512.125 2021.772 2509.463 2026.448 2504.238C 2035.165 2494.498 2034.332 2479.479 2024.59 2470.761ZM 2024.211 2502.239 C 2016.598 2510.748 2003.479 2511.476 1994.969 2503.859C 1986.459 2496.244 1985.732 2483.126 1993.346 2474.617C 1996.9994983717625 2470.51210369298 2002.1433340439398 2468.039389700158 2007.631 2467.75C 2008.024 2467.729 2008.414 2467.718 2008.804 2467.718C 2013.903 2467.718 2018.759 2469.569 2022.589 2472.996C 2031.099 2480.612 2031.826 2493.73 2024.211 2502.239Z"></path><path fill="#acff00" stroke="none" fill-opacity="1" stroke-width="1" stroke-opacity="1" color="rgb(51, 51, 51)" fill-rule="evenodd" font-size-adjust="none" id="tSvgd2326f448" title="Path 2" d="M 1996.011 2476.957 C 1995.2213795200328 2477.799515774897 1995.6399167996287 2479.18087737861 1996.764367103762 2479.443450886162C 1997.310344726113 2479.5709436342345 1997.8818465778897 2479.3833076941423 1998.246 2478.957C 2003.47 2473.12 2012.466 2472.622 2018.3029999999999 2477.844C 2019.145515773569 2478.633620481384 2020.526877376146 2478.215083202386 2020.7894508855882 2477.090632898694C 2020.9169436345917 2476.5446552765034 2020.7293076936094 2475.9731534228195 2020.3029999999999 2475.609C 2013.233 2469.283 2002.336 2469.889 1996.011 2476.957Z"></path><path fill="#acff00" stroke="none" fill-opacity="1" stroke-width="1" stroke-opacity="1" color="rgb(51, 51, 51)" fill-rule="evenodd" font-size-adjust="none" id="tSvgbfcd8d8e74" title="Path 3" d="M 2040.676 2486.496 C 2040.167 2478.004 2036.382 2470.22 2030.018 2464.575C 2023.654 2458.93 2015.48 2456.11 2006.98 2456.611C 1998.489 2457.12 1990.704 2460.905 1985.06 2467.269C 1973.745 2480.026 1974.559 2499.411 1986.645 2511.192C 1984.9206666666666 2513.1593333333335 1983.1963333333333 2515.1266666666666 1981.472 2517.094C 1980.919 2516.603666666667 1980.366 2516.1133333333332 1979.813 2515.623C 1979.1957442051632 2515.0734234324423 1978.249902193916 2515.128034282156 1977.7 2515.745C 1971.7 2522.45 1965.7 2529.155 1959.7 2535.86C 1959.1486008616569 2536.4775854683417 1959.2009316192018 2537.4249063635757 1959.817 2537.978C 1961.702 2539.665 1963.587 2541.352 1965.472 2543.0389999999998C 1966.0888633368488 2543.5929686809363 1967.0384896586577 2543.5400622094744 1967.59 2542.921C 1973.598 2536.2073333333333 1979.606 2529.4936666666667 1985.614 2522.78C 1986.16796047664 2522.160921301438 1986.1132611536298 2521.209511762053 1985.492 2520.658C 1984.9003333333333 2520.133333333333 1984.3086666666666 2519.6086666666665 1983.717 2519.084C 1985.4403333333332 2517.118 1987.1636666666666 2515.152 1988.887 2513.186C 1994.5280086690054 2517.7667878748794 2001.5763323780902 2520.261748664804 2008.843 2520.25C 2009.49 2520.25 2010.141 2520.23 2010.792 2520.191C 2019.283 2519.681 2027.068 2515.896 2032.713 2509.532C 2038.358 2503.168 2041.185 2494.988 2040.676 2486.496ZM 1966.355 2539.803 C 1965.2153333333333 2538.783 1964.0756666666666 2537.763 1962.936 2536.743C 1968.2706666666666 2530.7816666666668 1973.6053333333334 2524.820333333333 1978.94 2518.859C 1980.0846666666666 2519.874 1981.2293333333334 2520.889 1982.374 2521.904C 1977.0343333333333 2527.8703333333333 1971.6946666666668 2533.8366666666666 1966.355 2539.803ZM 2030.468 2507.542 C 2025.355 2513.307 2018.3029999999999 2516.735 2010.612 2517.196C 2002.922 2517.67 1995.51 2515.095 1989.745 2509.983C 1977.845 2499.428 1976.75 2481.159 1987.305 2469.259C 1992.4180000000001 2463.494 1999.47 2460.066 2007.161 2459.605C 2007.751 2459.569 2008.339 2459.552 2008.926 2459.552C 2015.98 2459.552 2022.706 2462.098 2028.029 2466.819C 2033.794 2471.932 2037.222 2478.984 2037.683 2486.675C 2038.143 2494.367 2035.58 2501.778 2030.468 2507.542Z"></path><defs></defs></svg> 