<?xml version="1.0" encoding="UTF-8"?> <svg xmlns="http://www.w3.org/2000/svg" viewBox="1950 2450 100 100" width="100" height="100" data-guides="{&quot;vertical&quot;:[],&quot;horizontal&quot;:[]}"><path fill="#acff00" stroke="none" fill-opacity="1" stroke-width="1" stroke-opacity="1" color="rgb(51, 51, 51)" fill-rule="evenodd" font-size-adjust="none" id="tSvg73f69fdb5" title="Path 6" d="M 2037.742 2471.408 C 2013.058 2471.408 1988.374 2471.408 1963.69 2471.408C 1960.811 2471.408 1958.469 2473.503 1958.469 2476.078C 1958.469 2491.228666666667 1958.469 2506.3793333333333 1958.469 2521.53C 1958.469 2524.105 1960.811 2526.201 1963.69 2526.201C 1988.374 2526.201 2013.058 2526.201 2037.742 2526.201C 2040.621 2526.201 2042.963 2524.105 2042.963 2521.53C 2042.963 2506.3793333333333 2042.963 2491.228666666667 2042.963 2476.078C 2042.963 2473.503 2040.621 2471.408 2037.742 2471.408ZM 2039.963 2521.53 C 2039.963 2522.435 2038.946 2523.201 2037.742 2523.201C 2013.058 2523.201 1988.374 2523.201 1963.69 2523.201C 1962.486 2523.201 1961.469 2522.435 1961.469 2521.53C 1961.469 2506.3793333333333 1961.469 2491.228666666667 1961.469 2476.078C 1961.469 2475.173 1962.486 2474.408 1963.69 2474.408C 1988.374 2474.408 2013.058 2474.408 2037.742 2474.408C 2038.946 2474.408 2039.963 2475.173 2039.963 2476.078C 2039.963 2491.228666666667 2039.963 2506.3793333333333 2039.963 2521.53Z"></path><path fill="#acff00" stroke="none" fill-opacity="1" stroke-width="1" stroke-opacity="1" color="rgb(51, 51, 51)" fill-rule="evenodd" font-size-adjust="none" id="tSvg41461dde5" title="Path 7" d="M 2000.715 2478.782 C 1989.675 2478.782 1980.693 2487.764 1980.693 2498.804C 1980.693 2509.844 1989.675 2518.826 2000.715 2518.826C 2011.755 2518.826 2020.737 2509.844 2020.737 2498.804C 2020.737 2487.764 2011.755 2478.782 2000.715 2478.782ZM 2000.715 2515.826 C 1991.329 2515.826 1983.693 2508.189 1983.693 2498.804C 1983.693 2489.419 1991.329 2481.782 2000.715 2481.782C 2010.101 2481.782 2017.737 2489.418 2017.737 2498.804C 2017.737 2508.19 2010.1009999999999 2515.826 2000.715 2515.826Z"></path><path fill="#acff00" stroke="none" fill-opacity="1" stroke-width="1" stroke-opacity="1" color="rgb(51, 51, 51)" fill-rule="evenodd" font-size-adjust="none" id="tSvg236cd28d81" title="Path 8" d="M 2009.5720000000001 2497.535 C 2005.6513333333332 2495.0653333333335 2001.7306666666666 2492.5956666666666 1997.81 2490.126C 1996.8355416787033 2489.5093873758965 1995.5590024829994 2490.1788865629715 1995.5122294468797 2491.331098536195C 1995.5113652255702 2491.3523878563424 1995.510955316672 2491.373693192773 1995.511 2491.395C 1995.511 2496.3343333333332 1995.511 2501.2736666666665 1995.511 2506.213C 1995.5106055831636 2507.367700471018 1996.7603589997198 2508.0898152347836 1997.7605561498012 2507.5128065742747C 1997.7772271281972 2507.503189171433 1997.7937114636698 2507.493251806783 1997.81 2507.483C 2001.7306666666666 2505.013 2005.6513333333332 2502.543 2009.5720000000001 2500.073C 2010.5068036838813 2499.485232248376 2010.5068036838813 2498.1227677516235 2009.5720000000001 2497.535ZM 1998.511 2503.495 C 1998.511 2500.367333333333 1998.511 2497.239666666667 1998.511 2494.112C 2000.9933333333333 2495.6756666666665 2003.4756666666667 2497.2393333333334 2005.958 2498.803C 2003.4756666666667 2500.367 2000.9933333333333 2501.931 1998.511 2503.495Z"></path><defs></defs></svg> 