<?xml version="1.0" encoding="UTF-8"?> <svg xmlns="http://www.w3.org/2000/svg" viewBox="1950 2450 100 100" width="100" height="100" data-guides="{&quot;vertical&quot;:[],&quot;horizontal&quot;:[]}"><path fill="#acff00" stroke="none" fill-opacity="1" stroke-width="1" stroke-opacity="1" color="rgb(51, 51, 51)" fill-rule="evenodd" font-size-adjust="none" id="tSvg1c1314472b" title="Path 6" d="M 2034.362 2542.304 C 2030.5286666666666 2534.637333333333 2026.6953333333333 2526.9706666666666 2022.862 2519.304C 2022.262 2518.204 2022.162 2517.904 2021.862 2517.304C 2017.0953333333334 2507.804 2012.3286666666668 2498.304 2007.562 2488.804C 2007.562 2481.704 2007.562 2474.604 2007.562 2467.504C 2009.6286666666667 2467.504 2011.6953333333333 2467.504 2013.762 2467.504C 2014.562 2467.504 2015.262 2466.804 2015.262 2466.004C 2015.262 2463.4373333333333 2015.262 2460.8706666666667 2015.262 2458.304C 2015.262 2457.504 2014.562 2456.804 2013.762 2456.804C 2003.4953333333333 2456.804 1993.2286666666666 2456.804 1982.962 2456.804C 1982.162 2456.804 1981.462 2457.504 1981.462 2458.304C 1981.462 2460.8706666666667 1981.462 2463.4373333333333 1981.462 2466.004C 1981.462 2466.804 1982.162 2467.504 1982.962 2467.504C 1985.0286666666666 2467.504 1987.0953333333334 2467.504 1989.162 2467.504C 1989.162 2474.5706666666665 1989.162 2481.637333333333 1989.162 2488.704C 1984.3953333333334 2498.2373333333335 1979.6286666666667 2507.770666666667 1974.862 2517.304C 1974.562 2517.904 1974.362 2518.404 1973.862 2519.304C 1970.0286666666666 2526.9706666666666 1966.1953333333333 2534.637333333333 1962.362 2542.304C 1962.162 2542.804 1962.162 2543.304 1962.462 2543.804C 1962.762 2544.304 1963.262 2544.504 1963.762 2544.504C 1986.862 2544.504 2009.962 2544.504 2033.062 2544.504C 2033.562 2544.504 2034.062 2544.204 2034.362 2543.804C 2034.662 2543.404 2034.562 2542.804 2034.362 2542.304ZM 1991.962 2489.804 C 1992.062 2489.604 1992.162 2489.404 1992.162 2489.104C 1992.162 2481.404 1992.162 2473.704 1992.162 2466.004C 1992.162 2465.204 1991.462 2464.504 1990.662 2464.504C 1988.5953333333334 2464.504 1986.5286666666666 2464.504 1984.462 2464.504C 1984.462 2462.9373333333333 1984.462 2461.3706666666667 1984.462 2459.804C 1993.7286666666666 2459.804 2002.9953333333333 2459.804 2012.262 2459.804C 2012.262 2461.3706666666667 2012.262 2462.9373333333333 2012.262 2464.504C 2010.1953333333333 2464.504 2008.1286666666667 2464.504 2006.062 2464.504C 2005.262 2464.504 2004.562 2465.204 2004.562 2466.004C 2004.562 2473.704 2004.562 2481.404 2004.562 2489.104C 2004.562 2489.304 2004.662 2489.604 2004.762 2489.804C 2009.462 2499.170666666667 2014.162 2508.537333333333 2018.862 2517.904C 2018.362 2518.204 2018.062 2518.504 2017.662 2518.704C 2017.062 2519.204 2016.662 2519.504 2015.662 2519.504C 2014.662 2519.504 2014.362 2519.204 2013.662 2518.704C 2012.862 2518.104 2011.762 2517.204 2009.862 2517.204C 2007.862 2517.204 2006.862 2518.104 2006.062 2518.704C 2005.462 2519.204 2005.062 2519.504 2004.162 2519.504C 2003.262 2519.504 2002.862 2519.204 2002.262 2518.704C 2001.462 2518.104 2000.362 2517.204 1998.462 2517.204C 1996.462 2517.204 1995.462 2518.104 1994.662 2518.704C 1994.062 2519.204 1993.662 2519.504 1992.762 2519.504C 1991.862 2519.504 1991.462 2519.204 1990.862 2518.704C 1990.062 2518.104 1988.962 2517.204 1987.062 2517.204C 1985.162 2517.204 1984.062 2518.104 1983.262 2518.704C 1982.662 2519.204 1982.262 2519.504 1981.362 2519.504C 1980.462 2519.504 1980.0620000000001 2519.204 1979.462 2518.704C 1979.162 2518.404 1978.762 2518.104 1978.262 2517.904C 1982.8286666666668 2508.537333333333 1987.3953333333334 2499.170666666667 1991.962 2489.804ZM 1966.162 2541.504 C 1969.6286666666667 2534.537333333333 1973.0953333333334 2527.5706666666665 1976.562 2520.604C 1976.762 2520.704 1976.962 2520.904 1977.162 2521.104C 1977.962 2521.704 1979.062 2522.604 1980.962 2522.604C 1982.962 2522.604 1983.962 2521.704 1984.762 2521.104C 1985.362 2520.604 1985.762 2520.304 1986.662 2520.304C 1987.562 2520.304 1987.962 2520.604 1988.562 2521.104C 1989.362 2521.704 1990.462 2522.604 1992.362 2522.604C 1994.262 2522.604 1995.362 2521.704 1996.162 2521.104C 1996.762 2520.604 1997.162 2520.304 1998.062 2520.304C 1998.962 2520.304 1999.362 2520.604 1999.962 2521.104C 2000.762 2521.704 2001.862 2522.604 2003.762 2522.604C 2005.762 2522.604 2006.762 2521.704 2007.562 2521.104C 2008.162 2520.604 2008.562 2520.304 2009.462 2520.304C 2010.362 2520.304 2010.762 2520.604 2011.462 2521.104C 2012.262 2521.704 2013.362 2522.604 2015.262 2522.604C 2017.162 2522.604 2018.262 2521.704 2019.062 2521.104C 2019.262 2520.904 2019.462 2520.804 2019.662 2520.604C 2023.1286666666667 2527.5706666666665 2026.5953333333332 2534.537333333333 2030.062 2541.504C 2008.762 2541.504 1987.462 2541.504 1966.162 2541.504Z"></path><defs></defs></svg> 