<?xml version="1.0" encoding="UTF-8"?> <svg xmlns="http://www.w3.org/2000/svg" viewBox="1950 2450 100 100" width="100" height="100" data-guides="{&quot;vertical&quot;:[],&quot;horizontal&quot;:[]}"><path fill="#acff00" stroke="none" fill-opacity="1" stroke-width="1" stroke-opacity="1" color="rgb(51, 51, 51)" fill-rule="evenodd" font-size-adjust="none" id="tSvgf8d558c724" title="Path 3" d="M 2029.1 2460.1 C 2023.8 2460.1 2018.5 2460.1 2013.2 2460.1C 2013.2 2457.8333333333335 2013.2 2455.5666666666666 2013.2 2453.3C 2013.2 2452.5 2012.5 2451.8 2011.7 2451.8C 2003.8 2451.8 1995.9 2451.8 1988 2451.8C 1987.2 2451.8 1986.5 2452.5 1986.5 2453.3C 1986.5 2455.5666666666666 1986.5 2457.8333333333335 1986.5 2460.1C 1980.9 2460.1 1975.3 2460.1 1969.7 2460.1C 1966.2 2460.1 1963.4 2462.9 1963.4 2466.4C 1963.4 2491.5333333333333 1963.4 2516.6666666666665 1963.4 2541.8C 1963.4 2545.3 1966.2 2548.1 1969.7 2548.1C 1989.5333333333333 2548.1 2009.3666666666666 2548.1 2029.2 2548.1C 2032.7 2548.1 2035.5 2545.3 2035.5 2541.8C 2035.5 2516.6666666666665 2035.5 2491.5333333333333 2035.5 2466.4C 2035.4 2462.9 2032.6 2460.1 2029.1 2460.1ZM 1988 2479.5 C 1995.9 2479.5 2003.8 2479.5 2011.7 2479.5C 2012.5 2479.5 2013.2 2478.8 2013.2 2478C 2013.2 2475.8333333333335 2013.2 2473.6666666666665 2013.2 2471.5C 2016.7 2471.5 2020.2 2471.5 2023.7 2471.5C 2023.7 2493.0666666666666 2023.7 2514.633333333333 2023.7 2536.2C 2007.5 2536.2 1991.3 2536.2 1975.1 2536.2C 1975.1 2514.6666666666665 1975.1 2493.133333333333 1975.1 2471.6C 1978.9 2471.6 1982.7 2471.6 1986.5 2471.6C 1986.5 2473.733333333333 1986.5 2475.866666666667 1986.5 2478C 1986.5 2478.9 1987.2 2479.5 1988 2479.5ZM 2010.2 2454.8 C 2010.2 2462.0333333333333 2010.2 2469.266666666667 2010.2 2476.5C 2003.3 2476.5 1996.4 2476.5 1989.5 2476.5C 1989.5 2469.266666666667 1989.5 2462.0333333333333 1989.5 2454.8C 1996.4 2454.8 2003.3 2454.8 2010.2 2454.8ZM 2032.4 2541.7 C 2032.4 2543.5 2030.9 2545 2029.1 2545C 2009.3 2545 1989.5 2545 1969.7 2545C 1967.9 2545 1966.4 2543.5 1966.4 2541.7C 1966.4 2516.6 1966.4 2491.5 1966.4 2466.4C 1966.4 2464.6 1967.9 2463.1 1969.7 2463.1C 1975.3 2463.1 1980.9 2463.1 1986.5 2463.1C 1986.5 2464.9333333333334 1986.5 2466.766666666667 1986.5 2468.6C 1982.2 2468.6 1977.9 2468.6 1973.6 2468.6C 1972.8 2468.6 1972.1 2469.3 1972.1 2470.1C 1972.1 2492.6666666666665 1972.1 2515.233333333333 1972.1 2537.8C 1972.1 2538.6 1972.8 2539.3 1973.6 2539.3C 1990.8 2539.3 2008 2539.3 2025.2 2539.3C 2026 2539.3 2026.7 2538.6 2026.7 2537.8C 2026.7 2515.233333333333 2026.7 2492.6666666666665 2026.7 2470.1C 2026.7 2469.3 2026 2468.6 2025.2 2468.6C 2021.2 2468.6 2017.2 2468.6 2013.2 2468.6C 2013.2 2466.766666666667 2013.2 2464.9333333333334 2013.2 2463.1C 2018.5 2463.1 2023.8 2463.1 2029.1 2463.1C 2030.9 2463.1 2032.4 2464.6 2032.4 2466.4C 2032.4 2491.5 2032.4 2516.6 2032.4 2541.7Z"></path><path fill="#acff00" stroke="none" fill-opacity="1" stroke-width="1" stroke-opacity="1" color="rgb(51, 51, 51)" fill-rule="evenodd" font-size-adjust="none" id="tSvg2de84912b6" title="Path 4" d="M 1978.8 2496.4 C 1978.8 2497.2 1979.5 2497.9 1980.3 2497.9C 1993.1333333333334 2497.9 2005.9666666666667 2497.9 2018.8 2497.9C 2019.6 2497.9 2020.3 2497.2 2020.3 2496.4C 2020.3 2495.6 2019.6 2494.9 2018.8 2494.9C 2005.9666666666667 2494.9 1993.1333333333334 2494.9 1980.3 2494.9C 1979.5 2494.9 1978.8 2495.6 1978.8 2496.4ZM 2018.8 2505.4 C 2005.9666666666667 2505.4 1993.1333333333334 2505.4 1980.3 2505.4C 1979.5 2505.4 1978.8 2506.1 1978.8 2506.9C 1978.8 2507.7 1979.5 2508.4 1980.3 2508.4C 1993.1333333333334 2508.4 2005.9666666666667 2508.4 2018.8 2508.4C 2019.6 2508.4 2020.3 2507.7 2020.3 2506.9C 2020.3 2506.1 2019.6 2505.4 2018.8 2505.4ZM 2018.8 2516.4 C 2005.9666666666667 2516.4 1993.1333333333334 2516.4 1980.3 2516.4C 1979.5 2516.4 1978.8 2517.1 1978.8 2517.9C 1978.8 2518.7 1979.5 2519.4 1980.3 2519.4C 1993.1333333333334 2519.4 2005.9666666666667 2519.4 2018.8 2519.4C 2019.6 2519.4 2020.3 2518.7 2020.3 2517.9C 2020.3 2517.1 2019.6 2516.4 2018.8 2516.4Z"></path><defs></defs></svg> 