<?xml version="1.0" encoding="UTF-8"?> <svg xmlns="http://www.w3.org/2000/svg" viewBox="1950 2450 100 100" width="100" height="100" data-guides="{&quot;vertical&quot;:[],&quot;horizontal&quot;:[]}"><path fill="#acff00" stroke="none" fill-opacity="1" stroke-width="1" stroke-opacity="1" color="rgb(51, 51, 51)" fill-rule="evenodd" font-size-adjust="none" id="tSvg8e0d6263fa" title="Path 5" d="M 2006.6 2466.5 C 2006.6 2465.0333333333333 2006.6 2463.5666666666666 2006.6 2462.1C 2007.9666666666667 2462.1 2009.3333333333333 2462.1 2010.7 2462.1C 2011.5 2462.1 2012.2 2461.4 2012.2 2460.6C 2012.2 2458.2 2012.2 2455.8 2012.2 2453.4C 2012.2 2452.6 2011.5 2451.9 2010.7 2451.9C 2004.8666666666666 2451.9 1999.0333333333333 2451.9 1993.2 2451.9C 1992.4 2451.9 1991.7 2452.6 1991.7 2453.4C 1991.7 2455.8 1991.7 2458.2 1991.7 2460.6C 1991.7 2461.4 1992.4 2462.1 1993.2 2462.1C 1994.5666666666666 2462.1 1995.9333333333334 2462.1 1997.3 2462.1C 1997.3 2463.5666666666666 1997.3 2465.0333333333333 1997.3 2466.5C 1987.6 2467.6 1979 2472.1 1972.5 2478.7C 1971.9333333333334 2478.133333333333 1971.3666666666666 2477.5666666666666 1970.8 2477C 1971.7333333333333 2476.0666666666666 1972.6666666666667 2475.133333333333 1973.6 2474.2C 1974.2 2473.6 1974.2 2472.7 1973.6 2472.1C 1971.6666666666667 2470.1666666666665 1969.7333333333333 2468.233333333333 1967.8 2466.3C 1967.2 2465.7 1966.3 2465.7 1965.7 2466.3C 1963.0666666666666 2468.866666666667 1960.4333333333334 2471.4333333333334 1957.8 2474C 1957.2 2474.6 1957.2 2475.5 1957.8 2476.1C 1959.7333333333333 2478.0333333333333 1961.6666666666667 2479.9666666666667 1963.6 2481.9C 1963.9 2482.2 1964.3 2482.3 1964.7 2482.3C 1965.1 2482.3 1965.5 2482.2 1965.8 2481.9C 1966.7666666666667 2480.9333333333334 1967.7333333333333 2479.9666666666667 1968.7 2479C 1969.3333333333333 2479.633333333333 1969.9666666666667 2480.266666666667 1970.6 2480.9C 1964.6 2488 1961 2497.2 1961 2507.2C 1961 2529.8 1979.4 2548.2 2002 2548.2C 2024.6 2548.2 2043 2529.8 2043 2507.2C 2042.9 2486.2 2027 2468.8 2006.6 2466.5ZM 1964.7 2478.8 C 1963.4666666666667 2477.5333333333333 1962.2333333333333 2476.266666666667 1961 2475C 1962.8666666666666 2473.133333333333 1964.7333333333333 2471.266666666667 1966.6 2469.4C 1967.8333333333333 2470.633333333333 1969.0666666666666 2471.866666666667 1970.3 2473.1C 1969.5666666666666 2473.8333333333335 1968.8333333333333 2474.5666666666666 1968.1 2475.3C 1967.7333333333333 2475.6666666666665 1967.3666666666666 2476.0333333333333 1967 2476.4C 1966.2333333333333 2477.2 1965.4666666666667 2478 1964.7 2478.8ZM 1998.8 2459.1 C 1997.4333333333334 2459.1 1996.0666666666666 2459.1 1994.7 2459.1C 1994.7 2457.7 1994.7 2456.3 1994.7 2454.9C 1999.5333333333333 2454.9 2004.3666666666666 2454.9 2009.2 2454.9C 2009.2 2456.3 2009.2 2457.7 2009.2 2459.1C 2007.8333333333333 2459.1 2006.4666666666667 2459.1 2005.1 2459.1C 2004.3 2459.1 2003.6 2459.8 2003.6 2460.6C 2003.6 2462.5 2003.6 2464.4 2003.6 2466.3C 2002.5333333333333 2466.3 2001.4666666666667 2466.3 2000.4 2466.3C 2000.4 2464.4 2000.4 2462.5 2000.4 2460.6C 2000.3 2459.7 1999.6 2459.1 1998.8 2459.1ZM 2001.9 2545.2 C 1981 2545.2 1963.9 2528.2 1963.9 2507.2C 1963.9 2486.2 1980.9 2469.2 2001.9 2469.2C 2002.7 2469.2 2003.5 2469.2 2004.3 2469.3C 2004.7 2469.3 2005.1 2469.4 2005.5 2469.4C 2024.8 2471.2 2039.9 2487.5 2039.9 2507.2C 2039.9 2528.2 2022.9 2545.2 2001.9 2545.2Z"></path><path fill="#acff00" stroke="none" fill-opacity="1" stroke-width="1" stroke-opacity="1" color="rgb(51, 51, 51)" fill-rule="evenodd" font-size-adjust="none" id="tSvg12bcee647aa" title="Path 6" d="M 2023.5 2482.6 C 2023.4 2482.5 2023.3 2482.4 2023.2 2482.3C 2017.5 2477.4 2010.1 2474.5 2002 2474.5C 1983.9 2474.5 1969.3 2489.2 1969.3 2507.2C 1969.3 2525.2 1983.9 2540 2001.9 2540C 2019.9 2540 2034.6 2525.3 2034.6 2507.3C 2034.7 2497.4 2030.3 2488.6 2023.5 2482.6ZM 2001.9 2537 C 1985.5 2537 1972.2 2523.7 1972.2 2507.3C 1972.2 2490.9 1985.5 2477.6 2001.9 2477.6C 2008.8 2477.6 2015.1 2480 2020.1 2483.9C 2014.7 2490.1 2009.3 2496.3 2003.9 2502.5C 2003.3 2502.3 2002.6 2502.1 2002 2502.1C 1999.2 2502.1 1996.9 2504.4 1996.9 2507.2C 1996.9 2510 1999.2 2512.3 2002 2512.3C 2004.8 2512.3 2007 2510 2007 2507.2C 2007 2506.2 2006.7 2505.2 2006.2 2504.4C 2011.6333333333334 2498.1666666666665 2017.0666666666666 2491.9333333333334 2022.5 2485.7C 2028.2 2491.1 2031.7 2498.7 2031.7 2507.2C 2031.7 2523.6 2018.3 2537 2001.9 2537ZM 2004 2507.2 C 2004 2508.4 2003.1 2509.3 2001.9 2509.3C 2000.7 2509.3 1999.8 2508.4 1999.8 2507.2C 1999.8 2506.1 2000.7 2505.1 2001.9 2505.1C 2003.1 2505.1 2004 2506.1 2004 2507.2Z"></path><defs></defs></svg> 