<svg width="1081" height="653" viewBox="0 0 1081 653" fill="none" xmlns="http://www.w3.org/2000/svg">
<path opacity="0.0416667" d="M275.761 488.533C222.052 542.255 323.645 565.8 381.155 570.858L484.258 566.27C531.144 560.942 575.778 445.153 648.706 418.48C695.53 401.355 813.34 412.793 850.193 311.67C876.063 240.685 975.089 206.78 945.831 151.135C922.866 107.458 875.337 173.003 714.562 195.463C630.699 207.179 605.559 112.115 471.726 170.541C337.892 228.967 495.727 216.189 530.241 281.832C558.419 335.423 579.253 394.854 420.977 392.825C339.758 391.784 342.898 421.381 275.761 488.533Z" stroke="url(#paint0_linear_56_2)" stroke-width="2"/>
<path opacity="0.0833333" d="M266.869 488.96C212.261 542.103 313.378 566.8 370.762 572.506L473.877 569.073C520.824 564.27 567.442 448.928 640.786 423.062C687.877 406.455 805.41 419.221 843.997 318.465C871.084 247.737 970.634 214.929 942.363 158.929C920.173 114.974 871.535 180.016 710.476 200.681C626.465 211.46 602.994 116.07 468.233 173.02C333.472 229.97 491.424 218.958 524.775 285.02C552.002 338.952 571.79 398.644 413.653 394.838C332.505 392.884 335.129 422.53 266.869 488.96Z" stroke="url(#paint1_linear_56_2)" stroke-width="2"/>
<path opacity="0.125" d="M257.95 489.346C202.454 541.901 303.075 567.745 360.322 574.098L463.428 571.822C510.428 567.544 559.021 452.671 632.766 427.617C680.114 411.531 797.348 425.623 837.661 325.254C865.96 254.797 966.015 223.092 938.736 166.749C917.325 122.524 867.588 187.05 706.276 205.916C622.133 215.756 600.336 120.059 464.674 175.521C329.011 230.984 487.051 221.741 519.231 288.208C545.503 342.471 564.239 402.414 406.273 396.829C325.213 393.963 327.32 423.653 257.95 489.346Z" stroke="url(#paint2_linear_56_2)" stroke-width="2"/>
<path opacity="0.166667" d="M249.005 489.694C192.632 541.65 292.737 568.637 349.837 575.635L452.914 574.516C499.958 570.764 550.515 456.384 624.648 432.146C672.245 416.584 789.156 432 831.188 332.036C860.693 261.865 961.233 231.268 934.952 174.593C914.324 130.107 863.498 194.104 701.964 211.167C617.705 220.067 597.587 124.08 461.05 178.045C324.512 232.011 482.609 224.538 513.612 291.397C538.923 345.98 556.605 406.161 398.839 398.8C317.883 395.023 319.472 424.749 249.005 489.694Z" stroke="url(#paint3_linear_56_2)" stroke-width="2"/>
<path opacity="0.208333" d="M240.037 490.003C182.798 541.35 282.368 569.473 339.308 577.116L442.337 577.154C489.415 573.928 541.928 460.063 616.432 436.647C664.269 421.612 780.835 438.348 824.577 338.809C855.283 268.937 956.288 239.455 931.01 182.458C911.169 137.72 859.264 201.176 697.54 216.433C613.182 224.391 594.746 128.134 457.36 180.59C319.975 233.047 478.097 227.347 507.917 294.585C532.262 349.478 548.886 409.885 391.353 400.749C310.516 396.061 311.586 425.819 240.037 490.003Z" stroke="url(#paint4_linear_56_2)" stroke-width="2"/>
<path opacity="0.25" d="M231.045 490.272C172.951 541 271.967 570.254 328.736 578.541L431.696 579.735C478.799 577.037 533.257 463.708 608.12 441.118C656.186 426.614 772.384 444.666 817.828 345.573C849.728 276.013 951.18 247.652 926.91 190.344C907.859 145.363 854.885 208.265 693.003 221.713C608.562 228.727 591.812 132.218 453.605 183.156C315.398 234.095 473.515 230.168 502.146 297.772C525.521 352.964 541.084 413.586 383.813 402.676C303.111 397.078 303.663 426.862 231.045 490.272Z" stroke="url(#paint5_linear_56_2)" stroke-width="2"/>
<path opacity="0.291667" d="M222.029 490.501C163.091 540.6 261.533 570.98 318.121 579.908L420.993 582.26C468.111 580.089 524.504 467.319 599.71 445.559C647.996 431.588 763.804 450.953 810.941 352.325C844.03 283.091 945.908 255.856 922.649 198.249C904.394 153.033 850.361 215.369 688.352 227.005C603.844 233.075 588.783 136.333 449.782 185.742C310.78 235.152 468.861 232.999 496.298 300.956C518.698 356.436 533.196 417.261 376.219 404.58C295.667 398.073 295.702 427.877 222.029 490.501Z" stroke="url(#paint6_linear_56_2)" stroke-width="2"/>
<path opacity="0.333333" d="M212.992 490.69C153.222 540.151 251.07 571.65 307.465 581.218L410.229 584.726C457.354 583.083 515.67 470.895 591.205 449.969C639.702 436.533 755.097 457.209 803.918 359.063C838.188 290.169 940.472 264.065 918.231 206.171C900.773 160.728 845.693 222.487 683.588 232.309C599.031 237.432 585.661 140.476 445.892 188.348C306.124 236.219 464.138 235.84 490.375 304.137C511.796 359.895 525.227 420.911 368.574 406.461C288.188 399.046 287.705 428.864 212.992 490.69Z" stroke="url(#paint7_linear_56_2)" stroke-width="2"/>
<path opacity="0.375" d="M203.933 490.839C143.342 539.651 240.578 572.264 296.77 582.47L399.404 587.133C446.527 586.019 506.755 474.433 582.604 454.346C631.303 441.449 746.262 463.43 796.757 365.787C832.203 297.246 934.873 272.279 913.653 214.107C896.997 168.448 840.879 229.617 678.71 237.623C594.12 241.799 582.445 144.647 441.936 190.972C301.427 237.296 459.344 238.691 484.377 307.315C504.813 363.338 517.175 424.534 360.877 408.318C280.673 399.997 279.671 429.824 203.933 490.839Z" stroke="url(#paint8_linear_56_2)" stroke-width="2"/>
<path opacity="0.416667" d="M194.851 490.947C133.452 539.101 230.057 572.821 286.034 583.662L388.52 589.481C435.631 588.896 497.759 477.934 573.907 458.689C622.799 446.333 737.3 469.615 789.459 372.494C826.073 304.319 929.11 280.494 908.915 222.057C893.064 176.189 835.919 236.756 673.718 242.945C589.111 246.173 579.133 148.845 437.912 193.613C296.69 238.38 454.478 241.55 478.301 310.486C497.75 366.766 509.04 428.128 353.127 410.15C273.12 400.924 271.601 430.753 194.851 490.947Z" stroke="url(#paint9_linear_56_2)" stroke-width="2"/>
<path opacity="0.458333" d="M185.751 491.013C123.555 538.5 219.51 573.321 275.262 584.796L377.578 591.768C424.669 591.712 488.685 481.396 565.118 462.998C614.191 451.185 728.212 475.764 782.026 379.184C819.801 311.388 923.184 288.709 904.019 230.018C888.976 183.951 830.816 243.904 668.614 248.274C584.007 250.553 575.727 153.068 433.82 196.271C291.913 239.473 449.542 244.417 472.151 313.652C490.609 370.176 500.824 431.694 345.326 411.956C265.533 401.828 263.496 431.654 185.751 491.013Z" stroke="url(#paint10_linear_56_2)" stroke-width="2"/>
<path opacity="0.5" d="M176.63 491.039C113.649 537.85 208.935 573.764 264.451 585.87L366.579 593.995C413.639 594.467 479.532 484.82 556.233 467.271C605.48 456.004 718.999 481.875 774.456 385.854C813.385 318.451 917.094 296.922 898.962 237.989C884.729 191.731 825.565 251.059 663.395 253.61C578.804 254.94 572.225 157.317 429.66 198.945C287.096 240.574 444.535 247.29 465.925 316.812C483.388 373.57 492.527 435.231 337.474 413.737C257.91 402.708 255.355 432.525 176.63 491.039Z" stroke="url(#paint11_linear_56_2)" stroke-width="2"/>
<path opacity="0.541667" d="M167.491 491.023C103.738 537.148 198.336 574.15 253.605 586.885L355.524 596.16C402.546 597.161 470.301 488.203 547.257 471.507C596.667 460.788 709.661 487.946 766.751 392.503C806.826 325.506 910.842 305.132 893.746 245.967C880.327 199.529 820.171 258.22 658.063 258.95C573.504 259.331 568.627 161.588 425.433 201.636C282.238 241.683 439.457 250.17 459.624 319.964C476.089 376.944 484.15 438.737 329.573 415.492C250.253 403.564 247.182 433.366 167.491 491.023Z" stroke="url(#paint12_linear_56_2)" stroke-width="2"/>
<path opacity="0.583333" d="M158.333 490.966C93.8205 536.396 187.714 574.478 242.724 587.839L344.415 598.263C391.388 599.793 460.993 491.545 538.189 475.706C587.753 465.536 700.2 493.976 758.912 399.13C800.125 332.551 904.426 313.336 888.371 253.952C875.768 207.341 814.631 265.384 652.617 264.294C568.108 263.726 564.933 165.883 421.137 204.341C277.341 242.798 434.308 253.055 453.249 323.108C468.712 380.3 475.693 442.211 321.623 417.22C242.562 404.395 238.975 434.177 158.333 490.966Z" stroke="url(#paint13_linear_56_2)" stroke-width="2"/>
<path opacity="0.625" d="M149.158 490.866C83.8977 535.594 177.067 574.747 231.809 588.733L333.252 600.304C380.167 602.361 451.608 494.845 529.028 479.865C578.736 470.248 690.615 499.963 750.937 405.733C793.281 339.586 897.847 321.533 882.834 261.942C871.05 215.167 808.944 272.551 647.056 269.641C562.613 268.123 561.141 170.199 416.771 207.06C272.401 243.92 429.087 255.944 446.797 326.243C461.255 383.635 467.155 445.653 313.621 418.92C234.836 405.202 230.733 434.957 149.158 490.866Z" stroke="url(#paint14_linear_56_2)" stroke-width="2"/>
<path opacity="0.666667" d="M139.967 490.725C73.9719 534.74 166.399 574.958 220.862 589.565L322.036 602.28C368.885 604.866 442.148 498.102 519.778 483.985C569.62 474.921 680.908 505.906 742.829 412.31C786.295 346.608 891.106 329.721 877.139 269.933C866.177 223.005 803.114 279.717 641.383 274.988C557.022 272.521 557.254 174.535 412.338 209.791C267.423 245.048 423.796 258.837 440.272 329.367C453.723 386.948 458.541 449.062 305.573 420.592C227.078 405.982 222.46 435.705 139.967 490.725Z" stroke="url(#paint15_linear_56_2)" stroke-width="2"/>
<path opacity="0.708333" d="M130.759 490.541C64.0421 533.835 155.709 575.11 209.882 590.335L310.769 604.193C357.541 607.306 432.612 501.315 510.436 488.063C560.404 479.555 671.08 511.805 734.587 418.86C779.166 353.616 884.202 337.898 871.284 277.925C861.145 230.852 797.137 286.883 635.595 280.335C551.332 276.919 553.268 178.89 407.835 212.536C262.402 246.181 418.432 261.733 433.671 332.481C446.112 390.24 449.847 452.436 297.475 422.235C219.286 406.737 214.155 436.423 130.759 490.541Z" stroke="url(#paint16_linear_56_2)" stroke-width="2"/>
<path opacity="0.75" d="M121.536 490.314C54.1101 532.88 144.999 575.203 198.871 591.044L299.451 606.041C346.138 609.681 423.003 504.483 501.006 492.099C551.088 484.148 661.13 517.656 726.211 425.381C771.896 360.607 877.136 346.062 865.269 285.916C855.955 238.707 791.015 294.045 629.694 285.68C545.546 281.317 549.185 183.264 403.262 215.292C257.34 247.32 412.997 264.631 426.996 335.583C438.425 393.508 441.076 455.776 289.329 423.849C211.461 407.466 205.817 437.107 121.536 490.314Z" stroke="url(#paint17_linear_56_2)" stroke-width="2"/>
<path opacity="0.791667" d="M112.299 490.045C44.1779 531.873 134.271 575.236 187.832 591.69L288.085 607.823C334.678 611.989 413.321 507.606 491.488 496.093C541.675 488.701 651.062 523.459 717.705 431.873C764.486 367.582 869.909 354.212 859.096 293.905C850.608 246.569 784.75 301.204 623.68 291.023C539.663 285.712 545.005 187.655 398.622 218.059C252.239 248.463 407.492 267.53 420.248 338.672C430.663 396.753 432.229 459.079 281.138 425.433C203.606 408.168 197.45 437.76 112.299 490.045Z" stroke="url(#paint18_linear_56_2)" stroke-width="2"/>
<path opacity="0.833333" d="M103.049 489.733C34.2453 530.815 123.525 575.211 176.765 592.273L276.671 609.54C323.161 614.231 403.567 510.683 481.882 500.042C532.165 493.21 640.876 529.213 709.067 438.332C756.934 374.537 862.521 362.345 852.763 301.888C845.104 254.436 778.339 308.356 617.553 296.361C533.684 290.105 540.726 192.062 393.911 220.836C247.097 249.61 401.916 270.43 413.427 341.748C422.824 399.973 423.306 462.345 272.899 426.987C195.719 408.844 189.053 438.38 103.049 489.733Z" stroke="url(#paint19_linear_56_2)" stroke-width="2"/>
<path opacity="0.875" d="M93.7854 489.378C24.3132 529.707 112.762 575.125 165.67 592.794L265.21 611.191C311.588 616.406 393.741 513.713 472.19 503.946C522.559 497.676 630.571 534.917 700.297 444.759C749.243 381.472 854.971 370.46 846.271 309.866C839.443 262.305 771.784 315.5 611.312 301.695C527.607 294.493 536.35 196.484 389.132 223.622C241.913 250.761 396.269 273.329 406.532 344.81C414.911 403.167 414.308 465.574 264.615 428.511C187.801 409.492 180.626 438.967 93.7854 489.378Z" stroke="url(#paint20_linear_56_2)" stroke-width="2"/>
<path opacity="0.916667" d="M84.5091 488.98C14.3816 528.547 101.982 574.98 154.549 593.251L253.703 612.774C299.959 618.513 383.844 516.694 462.411 507.804C512.855 502.096 620.149 540.568 691.397 451.152C741.41 388.385 847.26 378.555 839.62 317.835C833.622 270.175 765.084 322.635 604.958 307.021C521.433 298.876 531.874 200.92 384.281 226.418C236.688 251.915 390.549 276.228 399.563 347.857C406.921 406.335 405.234 468.764 256.284 430.003C179.851 410.112 172.168 439.52 84.5091 488.98Z" stroke="url(#paint21_linear_56_2)" stroke-width="2"/>
<path opacity="0.958333" d="M75.2224 488.538C4.45318 527.336 91.1889 574.774 143.403 593.644L242.152 614.29C288.278 620.55 373.878 519.627 452.548 511.615C503.058 506.471 609.612 546.165 682.368 457.508C733.439 395.273 839.391 386.627 832.811 325.794C827.646 278.044 758.24 329.759 598.492 312.339C515.164 303.253 527.301 205.368 379.362 229.22C231.423 253.072 384.76 279.124 392.522 350.888C398.859 409.476 396.087 471.915 247.91 431.462C171.873 410.704 163.684 440.04 75.2224 488.538Z" stroke="url(#paint22_linear_56_2)" stroke-width="2"/>
<path d="M65.9241 488.053C-5.47301 526.074 80.3807 574.509 132.232 593.973L230.557 615.738C276.544 622.519 363.842 522.51 442.599 515.378C493.166 510.799 598.96 551.709 673.208 463.827C725.329 402.137 831.36 394.677 825.842 333.741C821.511 285.912 751.252 336.871 591.912 317.649C508.797 307.622 522.628 209.828 374.372 232.03C226.115 254.232 378.898 282.018 385.408 353.902C390.722 412.588 386.866 475.026 239.49 432.89C163.864 411.269 155.17 440.526 65.9241 488.053Z" stroke="url(#paint23_linear_56_2)" stroke-width="2"/>
<defs>
<linearGradient id="paint0_linear_56_2" x1="508.369" y1="156.532" x2="638.015" y2="511.011" gradientUnits="userSpaceOnUse">
<stop stop-color="#7E52FF"/>
<stop offset="1" stop-color="#B8FF01"/>
</linearGradient>
<linearGradient id="paint1_linear_56_2" x1="505.096" y1="159.416" x2="630.438" y2="514.83" gradientUnits="userSpaceOnUse">
<stop stop-color="#7E52FF"/>
<stop offset="1" stop-color="#B8FF01"/>
</linearGradient>
<linearGradient id="paint2_linear_56_2" x1="501.749" y1="162.325" x2="622.803" y2="518.641" gradientUnits="userSpaceOnUse">
<stop stop-color="#7E52FF"/>
<stop offset="1" stop-color="#B8FF01"/>
</linearGradient>
<linearGradient id="paint3_linear_56_2" x1="498.33" y1="165.259" x2="615.112" y2="522.445" gradientUnits="userSpaceOnUse">
<stop stop-color="#7E52FF"/>
<stop offset="1" stop-color="#B8FF01"/>
</linearGradient>
<linearGradient id="paint4_linear_56_2" x1="494.838" y1="168.217" x2="607.363" y2="526.243" gradientUnits="userSpaceOnUse">
<stop stop-color="#7E52FF"/>
<stop offset="1" stop-color="#B8FF01"/>
</linearGradient>
<linearGradient id="paint5_linear_56_2" x1="491.273" y1="171.198" x2="599.555" y2="530.033" gradientUnits="userSpaceOnUse">
<stop stop-color="#7E52FF"/>
<stop offset="1" stop-color="#B8FF01"/>
</linearGradient>
<linearGradient id="paint6_linear_56_2" x1="487.633" y1="174.201" x2="591.685" y2="533.818" gradientUnits="userSpaceOnUse">
<stop stop-color="#7E52FF"/>
<stop offset="1" stop-color="#B8FF01"/>
</linearGradient>
<linearGradient id="paint7_linear_56_2" x1="483.919" y1="177.226" x2="583.754" y2="537.596" gradientUnits="userSpaceOnUse">
<stop stop-color="#7E52FF"/>
<stop offset="1" stop-color="#B8FF01"/>
</linearGradient>
<linearGradient id="paint8_linear_56_2" x1="480.131" y1="180.272" x2="575.761" y2="541.367" gradientUnits="userSpaceOnUse">
<stop stop-color="#7E52FF"/>
<stop offset="1" stop-color="#B8FF01"/>
</linearGradient>
<linearGradient id="paint9_linear_56_2" x1="476.268" y1="183.337" x2="567.703" y2="545.131" gradientUnits="userSpaceOnUse">
<stop stop-color="#7E52FF"/>
<stop offset="1" stop-color="#B8FF01"/>
</linearGradient>
<linearGradient id="paint10_linear_56_2" x1="472.33" y1="186.421" x2="559.581" y2="548.889" gradientUnits="userSpaceOnUse">
<stop stop-color="#7E52FF"/>
<stop offset="1" stop-color="#B8FF01"/>
</linearGradient>
<linearGradient id="paint11_linear_56_2" x1="468.315" y1="189.524" x2="551.393" y2="552.639" gradientUnits="userSpaceOnUse">
<stop stop-color="#7E52FF"/>
<stop offset="1" stop-color="#B8FF01"/>
</linearGradient>
<linearGradient id="paint12_linear_56_2" x1="464.226" y1="192.644" x2="543.138" y2="556.383" gradientUnits="userSpaceOnUse">
<stop stop-color="#7E52FF"/>
<stop offset="1" stop-color="#B8FF01"/>
</linearGradient>
<linearGradient id="paint13_linear_56_2" x1="460.061" y1="195.78" x2="534.815" y2="560.119" gradientUnits="userSpaceOnUse">
<stop stop-color="#7E52FF"/>
<stop offset="1" stop-color="#B8FF01"/>
</linearGradient>
<linearGradient id="paint14_linear_56_2" x1="455.819" y1="198.932" x2="526.423" y2="563.848" gradientUnits="userSpaceOnUse">
<stop stop-color="#7E52FF"/>
<stop offset="1" stop-color="#B8FF01"/>
</linearGradient>
<linearGradient id="paint15_linear_56_2" x1="451.501" y1="202.099" x2="517.961" y2="567.569" gradientUnits="userSpaceOnUse">
<stop stop-color="#7E52FF"/>
<stop offset="1" stop-color="#B8FF01"/>
</linearGradient>
<linearGradient id="paint16_linear_56_2" x1="447.106" y1="205.28" x2="509.427" y2="571.281" gradientUnits="userSpaceOnUse">
<stop stop-color="#7E52FF"/>
<stop offset="1" stop-color="#B8FF01"/>
</linearGradient>
<linearGradient id="paint17_linear_56_2" x1="442.634" y1="208.473" x2="500.82" y2="574.984" gradientUnits="userSpaceOnUse">
<stop stop-color="#7E52FF"/>
<stop offset="1" stop-color="#B8FF01"/>
</linearGradient>
<linearGradient id="paint18_linear_56_2" x1="438.086" y1="211.679" x2="492.142" y2="578.678" gradientUnits="userSpaceOnUse">
<stop stop-color="#7E52FF"/>
<stop offset="1" stop-color="#B8FF01"/>
</linearGradient>
<linearGradient id="paint19_linear_56_2" x1="433.46" y1="214.897" x2="483.388" y2="582.362" gradientUnits="userSpaceOnUse">
<stop stop-color="#7E52FF"/>
<stop offset="1" stop-color="#B8FF01"/>
</linearGradient>
<linearGradient id="paint20_linear_56_2" x1="428.758" y1="218.124" x2="474.56" y2="586.035" gradientUnits="userSpaceOnUse">
<stop stop-color="#7E52FF"/>
<stop offset="1" stop-color="#B8FF01"/>
</linearGradient>
<linearGradient id="paint21_linear_56_2" x1="423.976" y1="221.362" x2="465.654" y2="589.698" gradientUnits="userSpaceOnUse">
<stop stop-color="#7E52FF"/>
<stop offset="1" stop-color="#B8FF01"/>
</linearGradient>
<linearGradient id="paint22_linear_56_2" x1="419.119" y1="224.608" x2="456.671" y2="593.348" gradientUnits="userSpaceOnUse">
<stop stop-color="#7E52FF"/>
<stop offset="1" stop-color="#B8FF01"/>
</linearGradient>
<linearGradient id="paint23_linear_56_2" x1="414.183" y1="227.863" x2="447.609" y2="596.986" gradientUnits="userSpaceOnUse">
<stop stop-color="#7E52FF"/>
<stop offset="1" stop-color="#B8FF01"/>
</linearGradient>
</defs>
</svg>
